<svg width="24" height="24" viewBox="0 0 24 24" fill="none" xmlns="http://www.w3.org/2000/svg">
<rect x="1" y="1" width="22" height="22" rx="7" fill="#2A00A5"/>
<path d="M5.09189 16V8H10.4825V9.39453H6.7833V11.3008H10.2052V12.6953H6.7833V14.6055H10.4981V16H5.09189ZM19.0858 10.8008H17.3749C17.3437 10.5794 17.2799 10.3828 17.1835 10.2109C17.0871 10.0365 16.9634 9.88802 16.8124 9.76562C16.6614 9.64323 16.4869 9.54948 16.289 9.48437C16.0937 9.41927 15.8814 9.38672 15.6522 9.38672C15.2382 9.38672 14.8775 9.48958 14.5702 9.69531C14.2629 9.89844 14.0246 10.1953 13.8554 10.5859C13.6861 10.974 13.6015 11.4453 13.6015 12C13.6015 12.5703 13.6861 13.0495 13.8554 13.4375C14.0272 13.8255 14.2668 14.1185 14.5741 14.3164C14.8814 14.5143 15.2369 14.6133 15.6405 14.6133C15.8671 14.6133 16.0767 14.5833 16.2694 14.5234C16.4647 14.4635 16.6379 14.3763 16.789 14.2617C16.94 14.1445 17.065 14.0026 17.164 13.8359C17.2655 13.6693 17.3358 13.4792 17.3749 13.2656L19.0858 13.2734C19.0416 13.6406 18.9309 13.9948 18.7538 14.3359C18.5793 14.6745 18.3437 14.9779 18.0468 15.2461C17.7525 15.5117 17.4009 15.7227 16.9921 15.8789C16.5858 16.0326 16.1262 16.1094 15.6132 16.1094C14.8996 16.1094 14.2616 15.9479 13.6991 15.625C13.1392 15.3021 12.6965 14.8346 12.371 14.2227C12.0481 13.6107 11.8866 12.8698 11.8866 12C11.8866 11.1276 12.0507 10.3854 12.3788 9.77344C12.7069 9.16146 13.1522 8.69531 13.7147 8.375C14.2772 8.05208 14.9101 7.89062 15.6132 7.89062C16.0767 7.89062 16.5064 7.95573 16.9022 8.08594C17.3007 8.21615 17.6535 8.40625 17.9608 8.65625C18.2681 8.90365 18.5181 9.20703 18.7108 9.56641C18.9062 9.92578 19.0312 10.3372 19.0858 10.8008Z" fill="white"/>
<rect x="1" y="1" width="22" height="22" rx="7" stroke="#2A00A5" stroke-width="2"/>
</svg>
