<svg width="24" height="24" viewBox="0 0 24 24" fill="none" xmlns="http://www.w3.org/2000/svg">
<rect width="24" height="24" rx="12" fill="#2A00A5"/>
<path d="M4.69531 16V8H10.0859V9.39453H6.38672V11.3008H9.80859V12.6953H6.38672V14.6055H10.1016V16H4.69531ZM18.6893 10.8008H16.9783C16.9471 10.5794 16.8833 10.3828 16.7869 10.2109C16.6906 10.0365 16.5669 9.88802 16.4158 9.76562C16.2648 9.64323 16.0903 9.54948 15.8924 9.48437C15.6971 9.41927 15.4848 9.38672 15.2557 9.38672C14.8416 9.38672 14.4809 9.48958 14.1736 9.69531C13.8663 9.89844 13.6281 10.1953 13.4588 10.5859C13.2895 10.974 13.2049 11.4453 13.2049 12C13.2049 12.5703 13.2895 13.0495 13.4588 13.4375C13.6307 13.8255 13.8702 14.1185 14.1775 14.3164C14.4848 14.5143 14.8403 14.6133 15.2439 14.6133C15.4705 14.6133 15.6801 14.5833 15.8729 14.5234C16.0682 14.4635 16.2413 14.3763 16.3924 14.2617C16.5434 14.1445 16.6684 14.0026 16.7674 13.8359C16.8689 13.6693 16.9393 13.4792 16.9783 13.2656L18.6893 13.2734C18.645 13.6406 18.5343 13.9948 18.3572 14.3359C18.1827 14.6745 17.9471 14.9779 17.6502 15.2461C17.3559 15.5117 17.0044 15.7227 16.5955 15.8789C16.1893 16.0326 15.7296 16.1094 15.2166 16.1094C14.5031 16.1094 13.865 15.9479 13.3025 15.625C12.7426 15.3021 12.2999 14.8346 11.9744 14.2227C11.6515 13.6107 11.49 12.8698 11.49 12C11.49 11.1276 11.6541 10.3854 11.9822 9.77344C12.3104 9.16146 12.7557 8.69531 13.3182 8.375C13.8807 8.05208 14.5135 7.89062 15.2166 7.89062C15.6801 7.89062 16.1098 7.95573 16.5057 8.08594C16.9041 8.21615 17.257 8.40625 17.5643 8.65625C17.8715 8.90365 18.1215 9.20703 18.3143 9.56641C18.5096 9.92578 18.6346 10.3372 18.6893 10.8008Z" fill="white"/>
</svg>
