<svg width="16" height="16" viewBox="0 0 16 16" fill="none" xmlns="http://www.w3.org/2000/svg">
<path d="M14.7652 15.8482L14.6784 15.7732L8 9.09523L1.32163 15.7732C1.01929 16.0756 0.529099 16.0756 0.226757 15.7732C-0.0480996 15.4984 -0.0730859 15.0683 0.151796 14.7652L0.226757 14.6784L6.90477 8L0.226756 1.32163C-0.0755857 1.01929 -0.0755858 0.5291 0.226756 0.226758C0.501611 -0.0480982 0.931716 -0.0730845 1.2348 0.151798L1.32163 0.226758L8 6.90478L14.6784 0.226757C14.9807 -0.0755843 15.4709 -0.0755844 15.7732 0.226757C16.0481 0.501613 16.0731 0.931717 15.8482 1.2348L15.7732 1.32163L9.09523 8L15.7732 14.6784C16.0756 14.9807 16.0756 15.4709 15.7732 15.7732C15.5289 16.0176 15.1619 16.0644 14.8705 15.9139L14.7652 15.8482Z" fill="#3800AF"/>
</svg>
