<svg width="25" height="24" viewBox="0 0 25 24" fill="none" xmlns="http://www.w3.org/2000/svg">
<g clip-path="url(#clip0_1352_46668)">
<path d="M10.5 12C12.7091 12 14.5 10.2091 14.5 8C14.5 5.79086 12.7091 4 10.5 4C8.29086 4 6.5 5.79086 6.5 8C6.5 10.2091 8.29086 12 10.5 12Z" fill="white"/>
<path d="M10.85 14.009C8.12 13.909 2.5 15.269 2.5 17.999V18.999C2.5 19.549 2.95 19.999 3.5 19.999H12.04C9.57 17.239 10.81 14.109 10.85 14.009Z" fill="white"/>
<path d="M19.93 18.0186C20.4 17.2186 20.63 16.2486 20.41 15.1986C20.07 13.5586 18.69 12.2486 17.03 12.0386C14.4 11.6986 12.18 13.9086 12.53 16.5386C12.75 18.1986 14.05 19.5786 15.69 19.9186C16.74 20.1386 17.71 19.9086 18.51 19.4386L20.37 21.2986C20.76 21.6886 21.39 21.6886 21.78 21.2986C22.17 20.9086 22.17 20.2786 21.78 19.8886L19.93 18.0186ZM16.5 17.9986C15.4 17.9986 14.5 17.0986 14.5 15.9986C14.5 14.8986 15.4 13.9986 16.5 13.9986C17.6 13.9986 18.5 14.8986 18.5 15.9986C18.5 17.0986 17.6 17.9986 16.5 17.9986Z" fill="white"/>
</g>
<defs>
<clipPath id="clip0_1352_46668">
<rect width="24" height="24" fill="white" transform="translate(0.5)"/>
</clipPath>
</defs>
</svg>
