<svg width="56" height="56" viewBox="0 0 56 56" fill="none" xmlns="http://www.w3.org/2000/svg">
<rect width="56" height="56" fill="#F5F2FB"/>
<g clip-path="url(#clip0_942_26285)">
<path d="M33 35.22H21V23H28V21H21C19.9 21 19 21.9 19 23V35C19 36.1 19.9 37 21 37H33C34.1 37 35 36.1 35 35V28H33V35.22Z" fill="#2A00A5"/>
<path d="M35 18H33V21H30C30.01 21.01 30 23 30 23H33V25.99C33.01 26 35 25.99 35 25.99V23H38V21H35V18Z" fill="#2A00A5"/>
<path d="M31 25H23V27H31V25Z" fill="#2A00A5"/>
<path d="M23 28V30H31V28H28H23Z" fill="#2A00A5"/>
<path d="M31 31H23V33H31V31Z" fill="#2A00A5"/>
</g>
<defs>
<clipPath id="clip0_942_26285">
<rect width="24" height="24" fill="white" transform="translate(16 16)"/>
</clipPath>
</defs>
</svg>
