<svg width="56" height="56" viewBox="0 0 56 56" fill="currentColor" xmlns="http://www.w3.org/2000/svg">
<rect width="56" height="56" fill="#F5F2FB"/>
<g clip-path="url(#clip0_942_26279)">
<path d="M28 22C29.1 22 30 22.9 30 24C30 25.1 29.1 26 28 26C26.9 26 26 25.1 26 24C26 22.9 26.9 22 28 22ZM28 32C30.7 32 33.8 33.29 34 34H22C22.23 33.28 25.31 32 28 32ZM28 20C25.79 20 24 21.79 24 24C24 26.21 25.79 28 28 28C30.21 28 32 26.21 32 24C32 21.79 30.21 20 28 20ZM28 30C25.33 30 20 31.34 20 34L20 36H36V34C36 31.34 30.67 30 28 30Z" fill="#2A00A5"/>
</g>
<defs>
<clipPath id="clip0_942_26279">
<rect width="24" height="24" fill="white" transform="translate(16 16)"/>
</clipPath>
</defs>
</svg>
